<?xml version="1.0" encoding="utf-8"?>
<!-- Generator: Adobe Illustrator 21.1.0, SVG Export Plug-In . SVG Version: 6.00 Build 0)  -->
<svg version="1.1" id="Layer_1" xmlns="http://www.w3.org/2000/svg" xmlns:xlink="http://www.w3.org/1999/xlink" x="0px" y="0px"
	 viewBox="0 0 427 80" style="enable-background:new 0 0 427 80;" xml:space="preserve">
<style type="text/css">
	.st0{fill:#FF0000;stroke:#FFFFFF;stroke-width:4;stroke-miterlimit:10;}
	.st1{fill:#999999;stroke:#FFFFFF;stroke-width:3;stroke-miterlimit:10;}
	.st2{fill:#F7931E;stroke:#FFFFFF;stroke-width:4;stroke-miterlimit:10;}
	.st3{fill:#F7931E;stroke:#FFFFFF;stroke-width:3;stroke-miterlimit:10;}
</style>
<g>
	<path class="st0" d="M67.3,54.6c0.2,1.5,0.1,3.2-0.5,5s-1.4,3.7-2.8,5.6s-3.2,3.5-5.6,4.9c-2.3,1.4-5.2,2.3-8.5,2.8
		c-2.5,0.3-4.8,0.4-6.9,0.2C41,73,39,72.5,37.2,71.7c-1.8-0.8-3.5-1.9-5.1-3.3c-1.5-1.3-2.7-2.8-3.9-4.5c-1.1-1.7-2.1-3.6-2.8-5.6
		c-0.7-2-1.2-4.2-1.6-6.5c-0.5-3.8-0.4-7.3,0.3-10.4c0.7-3.2,1.9-5.9,3.7-8.4c1.8-2.4,4-4.4,6.6-5.9c2.6-1.5,5.5-2.5,8.7-2.9
		c3.8-0.5,7.4-0.2,10.6,0.9c3.2,1.1,5.8,2.7,7.7,4.7c1.9,2,3,4,3.3,6c0.1,1.1-0.1,2.1-0.8,3.1c-0.7,0.9-1.5,1.5-2.6,1.6
		c-1.2,0.2-2.2,0-2.9-0.5c-0.7-0.5-1.5-1.4-2.5-2.7c-1.6-2.2-3.3-3.7-5.1-4.7c-1.9-0.9-4-1.2-6.5-0.9c-3.9,0.5-6.9,2.5-8.8,5.8
		c-1.9,3.3-2.5,7.7-1.8,13.2c0.5,3.7,1.4,6.7,2.8,9c1.4,2.3,3.1,3.9,5.1,4.9c2.1,0.9,4.4,1.2,6.9,0.9c2.8-0.4,5-1.4,6.7-3
		c1.7-1.6,2.9-3.8,3.5-6.6c0.2-1.3,0.6-2.4,1.1-3.3c0.5-0.9,1.4-1.4,2.8-1.6c1.1-0.2,2.2,0.1,3.1,0.8C66.6,52.5,67.1,53.4,67.3,54.6
		z"/>
</g>
<g>
	<path class="st0" d="M72.7,54.6l0-19.2c0-1.6,0.3-2.9,1-3.7c0.7-0.8,1.6-1.2,2.7-1.2c1.2,0,2.1,0.4,2.8,1.2c0.7,0.8,1,2,1,3.7
		l0,19.6c0,2.2,0.2,4.1,0.7,5.6c0.5,1.5,1.3,2.7,2.5,3.5c1.2,0.8,2.8,1.2,5,1.2c2.9,0,5-0.8,6.2-2.5c1.2-1.7,1.8-4.2,1.8-7.6l0-19.8
		c0-1.6,0.3-2.9,1-3.7s1.6-1.2,2.7-1.2c1.1,0,2,0.4,2.7,1.2c0.7,0.8,1.1,2,1.1,3.7l0,19.2c0,3.1-0.3,5.7-0.9,7.8
		c-0.6,2.1-1.6,3.9-3.2,5.5c-1.4,1.3-2.9,2.3-4.7,2.9c-1.8,0.6-3.9,0.9-6.3,0.9c-2.9,0-5.3-0.3-7.4-1c-2.1-0.7-3.7-1.7-5-3.1
		s-2.3-3.2-2.9-5.3S72.7,57.6,72.7,54.6z"/>
</g>
<g>
	<path class="st0" d="M137.7,44.5l-7.8-2.8l-10,27.6c-0.6,1.6-1.3,2.6-2.3,3.2c-0.9,0.5-1.9,0.6-3,0.2c-1.1-0.4-1.8-1.1-2.2-2.1
		c-0.4-1-0.3-2.3,0.3-3.9l10-27.6l-7.8-2.8c-1.2-0.4-2-1.1-2.4-1.9c-0.4-0.8-0.4-1.7-0.1-2.6c0.4-1,0.9-1.6,1.8-2
		c0.8-0.3,1.8-0.3,3,0.1l22.8,8.3c1.2,0.5,2.1,1.1,2.4,1.9c0.4,0.8,0.4,1.7,0.1,2.6c-0.3,0.9-0.9,1.6-1.7,2
		C140,44.9,138.9,44.9,137.7,44.5z"/>
</g>
<g>
	<path class="st0" d="M173.6,31.5l-17.7,5.2l3,10.2l16.3-4.8c1.2-0.4,2.2-0.3,2.9,0.1c0.8,0.4,1.3,1.1,1.6,2
		c0.3,0.9,0.2,1.8-0.2,2.6c-0.4,0.8-1.2,1.3-2.4,1.7l-16.3,4.8l3.5,11.9l18.4-5.3c1.2-0.4,2.3-0.3,3.1,0.1c0.8,0.4,1.4,1.2,1.7,2.2
		c0.3,1,0.2,1.9-0.2,2.7c-0.4,0.8-1.3,1.4-2.5,1.7l-21.4,6.2c-1.7,0.5-3.1,0.5-4.1-0.1c-1-0.6-1.7-1.8-2.3-3.6l-9.1-31.4
		c-0.4-1.2-0.5-2.3-0.4-3.1c0.1-0.9,0.5-1.6,1.1-2.1c0.6-0.6,1.5-1,2.6-1.3l20.8-6.1c1.3-0.4,2.3-0.3,3.1,0.1
		c0.8,0.4,1.3,1.1,1.6,2.1c0.3,1,0.2,1.9-0.2,2.6S174.9,31.1,173.6,31.5z"/>
</g>
<g>
	<path class="st1" d="M203.3,27.1c3.1-0.1,5.8,0.5,8.1,1.8c2.3,1.3,4.1,3.3,5.3,5.9s2,5.7,2.2,9.3c0.1,2.6-0.1,5.1-0.6,7.3
		c-0.5,2.2-1.4,4.1-2.6,5.8s-2.7,2.9-4.4,3.9c-1.8,0.9-3.8,1.4-6.2,1.6c-2.3,0.1-4.5-0.2-6.3-1c-1.9-0.8-3.5-1.9-4.8-3.4
		c-1.3-1.5-2.3-3.4-3.1-5.5c-0.7-2.2-1.2-4.6-1.3-7.1c-0.1-2.6,0.1-5.1,0.6-7.3c0.6-2.2,1.4-4.1,2.6-5.7c1.2-1.6,2.6-2.9,4.4-3.8
		C199,27.8,201,27.2,203.3,27.1z M212.7,44.4c-0.1-2.5-0.6-4.7-1.4-6.5c-0.8-1.8-1.9-3.1-3.2-4s-2.9-1.3-4.6-1.2
		c-1.2,0.1-2.3,0.4-3.3,0.9c-1,0.6-1.8,1.4-2.5,2.4c-0.7,1-1.2,2.3-1.6,3.9c-0.4,1.6-0.5,3.3-0.4,5.3c0.1,1.9,0.4,3.7,0.9,5.3
		c0.5,1.6,1.2,2.8,2,3.8c0.8,1,1.8,1.7,2.8,2.2c1,0.5,2.2,0.7,3.4,0.6c1.5-0.1,3-0.6,4.2-1.5c1.3-0.9,2.2-2.4,2.9-4.3
		S212.8,47.1,212.7,44.4z"/>
</g>
<g>
	<path class="st1" d="M234.2,47.6l-2.1,0.1l0.5,11c0.1,1.4-0.2,2.5-0.7,3.2c-0.5,0.7-1.2,1.1-2.1,1.1c-1,0-1.7-0.3-2.3-1
		c-0.6-0.7-0.9-1.7-0.9-3.1l-1.2-26.4c-0.1-1.5,0.2-2.6,0.7-3.3c0.6-0.7,1.5-1.1,2.8-1.1l9.8-0.5c1.4-0.1,2.5-0.1,3.5,0
		c1,0.1,1.9,0.3,2.6,0.7c1,0.4,1.8,1,2.6,1.8c0.8,0.8,1.4,1.8,1.8,2.9c0.4,1.1,0.7,2.3,0.7,3.5c0.1,2.6-0.4,4.6-1.6,6.2
		c-1.2,1.6-3,2.8-5.6,3.5c1.1,0.6,2.2,1.5,3.2,2.8s2,2.5,2.8,4c0.8,1.4,1.5,2.7,2,3.8c0.5,1.1,0.7,1.9,0.8,2.4
		c0,0.5-0.1,0.9-0.3,1.4c-0.2,0.5-0.6,0.8-1,1.1c-0.4,0.3-0.9,0.4-1.5,0.5c-0.7,0-1.3-0.1-1.7-0.5c-0.5-0.3-0.9-0.8-1.3-1.3
		c-0.4-0.5-0.9-1.4-1.5-2.4l-2.6-4.5c-0.9-1.7-1.8-2.9-2.5-3.8s-1.5-1.4-2.2-1.7C236.2,47.6,235.3,47.5,234.2,47.6z M237,33
		l-5.6,0.3l0.4,9.4l5.4-0.3c1.5-0.1,2.7-0.3,3.7-0.6c1-0.3,1.7-0.9,2.2-1.6c0.5-0.7,0.7-1.7,0.7-2.9c0-0.9-0.3-1.8-0.7-2.5
		c-0.5-0.7-1.1-1.2-1.8-1.5C240.5,33,239.1,32.9,237,33z"/>
</g>
<g>
	<path class="st2" d="M273.8,29.4l18,26l-1.3-27c-0.1-1.8,0.2-3.1,0.9-4c0.7-0.9,1.6-1.4,2.8-1.5c1.3-0.1,2.3,0.3,3,1.2
		c0.8,0.8,1.2,2.1,1.3,3.9l1.7,35.7c0.2,4-1.3,6-4.4,6.2c-0.8,0-1.5,0-2.1-0.3c-0.6-0.2-1.2-0.6-1.8-1c-0.6-0.5-1.1-1.1-1.6-1.7
		c-0.5-0.7-1-1.4-1.5-2.1l-17.6-25.7l1.2,26.6c0.1,1.7-0.2,3.1-1,4c-0.7,0.9-1.7,1.4-2.9,1.5c-1.2,0.1-2.2-0.3-3-1.2
		c-0.8-0.9-1.2-2.1-1.3-3.9l-1.6-35c-0.1-1.5,0-2.7,0.3-3.5c0.3-0.9,0.9-1.7,1.7-2.4c0.8-0.6,1.8-1,2.8-1c0.8,0,1.5,0.1,2,0.3
		c0.6,0.2,1.1,0.6,1.5,1c0.4,0.4,0.9,1,1.4,1.7C272.8,27.9,273.3,28.6,273.8,29.4z"/>
</g>
<g>
	<path class="st2" d="M338.7,24.8c4.2,1.5,7.5,3.6,9.9,6.5c2.4,2.9,3.8,6.2,4.2,10.1c0.4,3.9-0.2,8-1.7,12.5
		c-1.1,3.3-2.6,6.2-4.4,8.6c-1.8,2.4-3.9,4.3-6.3,5.7c-2.4,1.4-5,2.2-7.9,2.4c-2.8,0.2-5.9-0.3-9.1-1.4c-3.2-1.1-5.9-2.6-8-4.6
		c-2.1-2-3.7-4.2-4.7-6.8c-1-2.6-1.5-5.4-1.4-8.4c0.1-3.1,0.7-6.2,1.8-9.4c1.1-3.3,2.6-6.2,4.5-8.6c1.9-2.4,4-4.3,6.3-5.7
		c2.4-1.3,5-2.1,7.8-2.3C332.6,23.3,335.6,23.8,338.7,24.8z M342.8,51c1.1-3.1,1.5-6,1.4-8.7c-0.2-2.6-0.9-4.9-2.3-6.7
		s-3.2-3.1-5.5-3.9c-1.7-0.6-3.3-0.8-4.9-0.6c-1.6,0.2-3.2,0.7-4.6,1.6c-1.4,0.9-2.8,2.2-4,4c-1.3,1.7-2.3,3.8-3.1,6.2
		c-0.8,2.4-1.3,4.7-1.4,6.9s0.2,4.1,0.8,5.8c0.6,1.7,1.5,3.1,2.7,4.2c1.2,1.1,2.6,2,4.2,2.5c2.1,0.7,4.2,0.8,6.4,0.3
		c2.2-0.5,4.2-1.7,6-3.7C340.1,57,341.6,54.4,342.8,51z"/>
</g>
<path class="st3" d="M426,20.3c0.2-3.5-1.4-6.5-2.1-9.5c-0.6-0.4-1.3-0.6-1.7-1.1c-0.9-1.1-1.6-2.4-2.4-3.5c-0.3-0.5-0.6-1-0.9-1.3
	c-0.6,0.1-1,0.4-1.3,0.3c-0.6-0.2-1.1-0.5-1.7-0.8c-1.4-0.7-2.8-1.8-4.6-1.4c-1.1,0.3-2.3,0.6-3.4,0.5c-1.7-0.2-3.2,0.2-4.9,0.7
	c0.2,1-0.5,1.1-1.2,1.4c-1.8,0.6-3.9,0.8-5.2,2.5c0.1,0.3,0.2,0.6,0.2,0.7c-1.1,0.9-2.2,1.7-3.1,2.6c-1,1-0.7,2.4-1.3,3.6
	c1-0.4,1.8-0.8,2.7-1.1c2.1-0.7,4.2-1.2,6.5-1c0.6,0.1,1.3,0.3,1.8,0.2c2.1-0.4,3.6,0.7,4.7,2.2c1.3,2,2.2,4.1,2.4,6.6
	c0.1,1.6,0,3.1-1,4.5c-0.6,0.8-1.1,1.6-1.7,2.4c-2.2,3-4.5,5.9-8.5,6.5c-1.5,0.2-3,0.5-4.5,0.4c-2-0.2-4-0.6-5.9-1.1
	c-1.6-0.4-3.2-0.8-4.7-1.4c-1.3-0.5-25.7-8.8-25.7-8.8c-1.4-0.5-2.5-0.5-3.4-0.1c-0.9,0.4-1.6,1.2-2,2.3c-0.4,1.1-0.3,2.1,0.1,2.9
	c0.5,0.9,1.4,1.6,2.8,2.1l9,3.1l-10.8,31.2c-0.6,1.8-0.7,3.2-0.2,4.4c0.5,1.1,1.3,1.9,2.5,2.4c1.2,0.4,2.3,0.3,3.4-0.3
	c1.1-0.6,1.9-1.8,2.5-3.6l10.8-31.2l4.1,1.4c0.1,0.2,0.1,0.3,0.3,0.4c2.2,1.2,3.7,3.3,5.7,4.7c1,0.7,2.1,1.2,3.2,1.8
	c1,0.5,2.1,0.7,2.9,1.6c0.5,0.6,1.3,0.8,2.1,1.3c0.2-0.8,0.4-1.4,1.1-1c0.8,0.5,1.5,0.6,2.4,0.5c1.3-0.1,2.7,0.2,4.1,0.3
	c0.7,0,1.5,0.1,2.2,0c1.7-0.2,3.3-0.6,5-0.9c0.2-0.1,0.6-0.6,0.6-0.8c-0.1-0.6,0.2-0.8,0.7-0.8c0.7-0.1,1.5-0.3,2.2-0.4
	c0.8-0.2,1.7-0.3,2.2-1c-0.2-0.3-0.4-0.5-0.7-0.9c3.2-0.9,6.3-1.7,8.3-4.5c-0.4-0.2-0.7-0.3-1-0.5c0.2-0.3,0.5-0.5,0.7-0.8
	c0,0,0.1-0.1,0.1-0.1c0.5-0.2,0.7-0.4,0.5-0.9c-0.1-0.2,0.2-0.5,0.3-0.6c0.7-0.7,1.6-1.2,2.1-2c0.7-1.1,1.5-2,2.5-2.7
	c0.5-0.4,0.9-0.7,0.4-1.4c-0.2-0.2-0.1-0.7,0-1c0.1-0.5,0.2-1,0.3-1.6c0.3-1.3,0.6-2.6,0.9-3.9c0.2-0.7,0.2-1.5,0.3-2.3
	C427.1,20.6,427,20.1,426,20.3z"/>
</svg>
